<svg xmlns="http://www.w3.org/2000/svg" height="25" width="88"><path id="logo" d="M0 0h1.1v18.5H0V0zM5.7 1C5.4 1 5.2 1.1 5 1.3 4.8 1.4 4.7 1.6 4.7 1.9c0 0.3 0.1 0.5 0.3 0.7 0.2 0.2 0.4 0.3 0.6 0.3 0.3 0 0.5-0.1 0.7-0.3 0.2-0.2 0.3-0.4 0.3-0.7 0-0.3-0.1-0.5-0.3-0.7C6.2 1.1 5.9 1 5.7 1zM5.1 18.5h1.1V6H5.1V18.5zM15.7 5.7c-1.9 0-3.4 0.9-4.3 2.6h0V6h-1.1v12.5h1.1v-7.2c0-1.3 0.4-2.4 1.2-3.3 0.8-0.9 1.8-1.3 3-1.3 2.2 0 3.2 1.5 3.2 4.5v7.3h1.1v-7.6c0-1.7-0.4-3-1.1-3.9C18.1 6.2 17 5.7 15.7 5.7zM32.5 6h1.1v11.6c0 2.4-0.5 4.1-1.5 5.2 -1 1.1-2.6 1.6-4.8 1.6 -1.2 0-2.4-0.3-3.7-1v-1.2c1.3 0.7 2.6 1.1 3.7 1.1 3.5 0 5.2-1.8 5.2-5.5v-1.6h0c-1 1.7-2.5 2.6-4.5 2.6 -1.5 0-2.8-0.6-3.8-1.7 -1-1.1-1.5-2.7-1.5-4.7 0-2 0.5-3.6 1.6-4.9 1-1.3 2.4-1.9 4.2-1.9 1.8 0 3.2 0.8 4 2.3h0V6zM32.5 10.8c0-1.1-0.4-2.1-1.1-2.9 -0.7-0.8-1.7-1.2-2.9-1.2 -1.4 0-2.5 0.5-3.3 1.5 -0.8 1-1.3 2.4-1.3 4.1 0 1.7 0.4 3 1.2 4 0.8 0.9 1.8 1.4 3 1.4 1.3 0 2.4-0.4 3.2-1.3 0.8-0.9 1.2-1.9 1.2-3.2V10.8zM47.9 7.4c0.9 1.1 1.3 2.6 1.3 4.5 0 2.1-0.5 3.8-1.5 5 -1 1.3-2.4 1.9-4.1 1.9 -1.5 0-2.7-0.6-3.5-1.8h0v1.5h-3.9V0H40v7.9h0c1-1.5 2.3-2.2 4.1-2.2C45.8 5.7 47 6.3 47.9 7.4zM45.2 12c0-1-0.2-1.8-0.7-2.4 -0.4-0.6-1.1-0.9-1.9-0.9 -0.8 0-1.4 0.3-1.9 0.9 -0.5 0.6-0.8 1.3-0.8 2.3v1.3c0 0.8 0.2 1.5 0.7 2s1.1 0.8 1.8 0.8c0.9 0 1.6-0.3 2-1C45 14.2 45.2 13.2 45.2 12zM62 11v7.5h-3.6v-1.8h0c-0.8 1.4-2.1 2.1-3.7 2.1 -1.2 0-2.2-0.3-2.9-1 -0.7-0.7-1-1.6-1-2.8 0-2.4 1.4-3.8 4.3-4.2l3.4-0.5c0-1.4-0.7-2.1-2.2-2.1 -1.5 0-2.9 0.4-4.2 1.3V6.8c0.5-0.3 1.3-0.5 2.2-0.7 0.9-0.2 1.8-0.3 2.5-0.3C60.2 5.7 62 7.5 62 11zM58.4 12.6l-2.3 0.3c-1.3 0.2-1.9 0.7-1.9 1.7 0 0.4 0.2 0.8 0.5 1.1 0.3 0.3 0.7 0.4 1.2 0.4 0.7 0 1.3-0.3 1.8-0.8 0.5-0.5 0.7-1.1 0.7-1.9V12.6zM73.1 12.3c-0.3-0.3-0.7-0.5-1.1-0.7s-0.9-0.4-1.4-0.6c-0.3-0.1-0.6-0.2-0.9-0.3 -0.3-0.1-0.6-0.2-0.8-0.3 -0.2-0.1-0.4-0.3-0.6-0.4s-0.2-0.4-0.2-0.6c0-0.2 0-0.3 0.1-0.5 0.1-0.1 0.2-0.2 0.4-0.3 0.2-0.1 0.4-0.2 0.6-0.2 0.2 0 0.5-0.1 0.7-0.1 0.5 0 1.1 0.1 1.6 0.2 0.6 0.1 1.1 0.4 1.6 0.6v-3c-0.6-0.2-1.1-0.3-1.7-0.4 -0.6-0.1-1.1-0.1-1.7-0.1 -0.7 0-1.4 0.1-2 0.2 -0.7 0.2-1.2 0.4-1.7 0.7 -0.5 0.3-0.9 0.7-1.2 1.2 -0.3 0.5-0.5 1.1-0.5 1.8 0 0.5 0.1 1 0.2 1.3 0.1 0.4 0.3 0.7 0.6 1 0.3 0.3 0.6 0.5 1 0.8 0.4 0.2 0.8 0.4 1.3 0.6 0.3 0.1 0.6 0.2 1 0.3 0.3 0.1 0.6 0.2 0.9 0.3 0.3 0.1 0.5 0.3 0.7 0.4 0.2 0.2 0.3 0.4 0.3 0.6 0 0.4-0.2 0.7-0.6 0.9 -0.4 0.2-0.9 0.3-1.6 0.3 -0.6 0-1.2-0.1-1.8-0.3 -0.6-0.2-1.3-0.5-1.9-0.9v3.1c1.2 0.4 2.4 0.6 3.8 0.6 0.7 0 1.5-0.1 2.2-0.2 0.7-0.2 1.3-0.4 1.8-0.7 0.5-0.3 1-0.8 1.3-1.3 0.3-0.5 0.5-1.2 0.5-1.9 0-0.5-0.1-1-0.2-1.4C73.7 12.9 73.4 12.6 73.1 12.3zM87.7 13.4h-8.2c0.1 1.8 1.3 2.7 3.4 2.7 1.4 0 2.6-0.3 3.6-1v2.8c-1.2 0.6-2.7 0.9-4.5 0.9 -2 0-3.6-0.6-4.7-1.7 -1.1-1.1-1.7-2.7-1.7-4.7 0-2.1 0.6-3.7 1.8-4.9 1.2-1.2 2.7-1.8 4.4-1.8 1.8 0 3.2 0.5 4.2 1.6 1 1.1 1.5 2.6 1.5 4.4V13.4zM84.1 11c0-1.8-0.7-2.7-2.2-2.7 -0.6 0-1.2 0.3-1.6 0.8 -0.5 0.5-0.7 1.2-0.8 1.9H84.1z"/></svg>